<svg version="1.0" xmlns="http://www.w3.org/2000/svg" width="346.667" height="346.667" viewBox="0 0 260 260"><path d="M19.7 19.7c-.2.5-.3 15.5-.2 33.6 0 28.5-.2 32.8-1.5 33.1-.8.2-5.2.3-9.8.2L0 86.5v87l9.7 9.8 9.8 9.7.1 23.3c.1 12.7.2 23.5.3 23.9 0 .5 15.4.8 34.1.8h34v-67.6l17.8.1h17.7l4.6 5c2.5 2.8 7 7.7 10 11 3 3.4 9.2 10.3 13.9 15.4 4.7 5.2 9.2 10.2 10 11.1 1.5 1.7 13.5 15 19.5 21.7l3 3.3 28-.2 28-.3v-67H260v-87l-9.7-9.7-9.8-9.8V19.5l-34.1-.3-34.1-.2.1 33.5c.1 21.5-.3 33.6-.9 33.8-1.6.5-37.3.2-37.7-.3-1.1-1.3-33.3-38.6-33.7-39-.4-.3-3.1-3.4-6.1-7-3-3.6-8.4-9.8-11.9-13.8L75.7 19H47.9c-15.3 0-28 .3-28.2.7z"/></svg>