<?xml version="1.0" standalone="no"?>
<!DOCTYPE svg PUBLIC "-//W3C//DTD SVG 20010904//EN"
 "http://www.w3.org/TR/2001/REC-SVG-20010904/DTD/svg10.dtd">
<svg version="1.0" xmlns="http://www.w3.org/2000/svg"
 width="260.000000pt" height="260.000000pt" viewBox="0 0 260.000000 260.000000"
 preserveAspectRatio="xMidYMid meet">
<metadata>
Created by potrace 1.11, written by Peter Selinger 2001-2013
</metadata>
<g transform="translate(0.000000,260.000000) scale(0.100000,-0.100000)"
fill="#000000" stroke="none">
<path d="M197 2403 c-2 -5 -3 -155 -2 -336 0 -285 -2 -328 -15 -331 -8 -2 -52
-3 -98 -2 l-82 1 0 -435 0 -435 97 -98 98 -97 1 -233 c1 -127 2 -235 3 -239 0
-5 154 -8 341 -8 l340 0 0 338 0 338 178 -1 177 0 46 -50 c25 -28 70 -77 100
-110 30 -34 92 -103 139 -154 47 -52 92 -102 100 -111 15 -17 135 -150 195
-217 l30 -33 280 2 280 3 0 335 0 335 98 0 97 0 0 435 0 435 -97 97 -98 98 0
238 0 237 -341 3 -341 2 1 -335 c1 -215 -3 -336 -9 -338 -16 -5 -373 -2 -377
3 -11 13 -333 386 -337 390 -4 3 -31 34 -61 70 -30 36 -84 98 -119 138 l-64
72 -278 0 c-153 0 -280 -3 -282 -7z"/>
</g>
</svg>
